<?xml version="1.0" encoding="utf-8"?>
<!-- Generator: Adobe Illustrator 24.3.0, SVG Export Plug-In . SVG Version: 6.00 Build 0)  -->
<svg version="1.1" id="Layer_1" xmlns="http://www.w3.org/2000/svg" xmlns:xlink="http://www.w3.org/1999/xlink" x="0px" y="0px"
	 width="400.4px" height="132.8px" viewBox="0 0 400.4 132.8" style="enable-background:new 0 0 400.4 132.8;" xml:space="preserve"
	>
<style type="text/css">
	.st0{fill:#00B3FF;}
	.st1{fill:#FFFFFF;}
	.st2{fill:#FF1281;}
	.st3{fill:#BADDEE;}
</style>
<g>
	<g>
		<path class="st0" d="M26.5,72.3v29.9h-4.9L6.7,83.2v19.1H0.6V72.3h4.8l14.9,19v-19H26.5z"/>
		<path class="st0" d="M40.9,72.3h6.6v29.9h-6.6V72.3z"/>
		<path class="st0" d="M87.5,85.7v14.7c-1.5,0.7-3.2,1.2-5.1,1.6c-1.9,0.4-3.9,0.6-6,0.6c-3.2,0-5.9-0.6-8.2-1.8
			c-2.3-1.2-4.1-3-5.4-5.3c-1.2-2.3-1.9-5-1.9-8.2c0-3.1,0.6-5.8,1.9-8.1c1.2-2.3,3-4.1,5.3-5.3c2.3-1.2,5-1.9,8-1.9
			c2.2,0,4.2,0.3,6,0.9c1.9,0.6,3.4,1.4,4.6,2.5L84.7,80c-1.4-1-2.8-1.7-4.1-2.2c-1.3-0.4-2.7-0.7-4.3-0.7c-5.8,0-8.7,3.4-8.7,10.1
			c0,6.9,3,10.3,9,10.3c1.7,0,3.3-0.2,5-0.6v-6.6h-5.9v-4.6H87.5z"/>
		<path class="st0" d="M128.3,72.3v29.9h-6.4V89.7H108v12.6h-6.4V72.3h6.4v12.1h13.9V72.3H128.3z"/>
		<path class="st0" d="M149.6,77.7h-9.4v-5.3h25.4v5.3h-9.4v24.6h-6.6V77.7z"/>
	</g>
	<g>
		<path class="st1" d="M180.9,129.9h-6.2l-1.3,3h-2.9l6.1-13.3h2.4l6.1,13.3h-2.9L180.9,129.9z M180,127.6l-2.1-5l-2.1,5H180z"/>
		<path class="st1" d="M201.3,119.5l-6,13.3H193l-6-13.3h3l4.1,9.7l4.2-9.7H201.3z"/>
		<path class="st1" d="M213.7,129.9h-6.2l-1.3,3h-2.9l6.1-13.3h2.4l6.1,13.3H215L213.7,129.9z M212.7,127.6l-2.1-5l-2.1,5H212.7z"/>
		<path class="st1" d="M222.7,119.5h5.1c1.5,0,2.7,0.3,3.8,0.8s1.8,1.3,2.4,2.3c0.6,1,0.8,2.2,0.8,3.6c0,1.4-0.3,2.6-0.8,3.6
			s-1.3,1.8-2.4,2.3c-1,0.5-2.3,0.8-3.8,0.8h-5.1V119.5z M227.7,130.5c2.8,0,4.3-1.4,4.3-4.3c0-2.9-1.4-4.3-4.3-4.3h-2v8.6H227.7z"
			/>
		<path class="st1" d="M249.4,129.9h-6.2l-1.3,3h-2.9l6.1-13.3h2.4l6.1,13.3h-2.9L249.4,129.9z M248.4,127.6l-2.1-5l-2.1,5H248.4z"
			/>
	</g>
	<g>
		<path class="st2" d="M273.9,100.7c-2.3-1.3-4-3.1-5.2-5.4c-1.2-2.3-1.8-5-1.8-8.1c0-3.1,0.6-5.7,1.8-8c1.2-2.3,2.9-4.1,5.2-5.4
			c2.3-1.3,4.9-1.9,7.9-1.9c2,0,3.9,0.3,5.7,0.9c1.8,0.6,3.3,1.4,4.4,2.5l-2.1,4.7c-1.3-1-2.7-1.7-3.9-2.2s-2.6-0.7-4-0.7
			c-2.7,0-4.7,0.9-6.2,2.6c-1.4,1.7-2.1,4.2-2.1,7.5c0,3.3,0.7,5.8,2.1,7.5c1.4,1.7,3.5,2.6,6.2,2.6c1.4,0,2.7-0.2,4-0.7
			s2.6-1.2,3.9-2.2l2.1,4.7c-1.1,1.1-2.6,1.9-4.4,2.5c-1.8,0.6-3.7,0.9-5.7,0.9C278.8,102.6,276.1,102,273.9,100.7z"/>
		<path class="st2" d="M305,72.3h6.6v24.6h13.4v5.3H305V72.3z"/>
		<path class="st2" d="M339.1,99.4c-2.2-2.2-3.3-5.3-3.3-9.5V72.3h6.4v17.9c0,2.4,0.6,4.2,1.7,5.4s2.7,1.9,4.8,1.9s3.7-0.6,4.7-1.9
			c1.1-1.2,1.6-3.1,1.6-5.4V72.3h6.5v17.6c0,4.1-1.1,7.3-3.3,9.5c-2.2,2.2-5.4,3.3-9.6,3.3C344.5,102.6,341.3,101.6,339.1,99.4z"/>
		<path class="st2" d="M399,89.4c1,1.3,1.4,2.8,1.4,4.6c0,2.5-0.9,4.5-2.8,6c-1.9,1.5-4.4,2.2-7.6,2.2h-14.2V72.3h13.8
			c3.1,0,5.6,0.7,7.4,2.1c1.8,1.4,2.7,3.3,2.7,5.7c0,1.6-0.4,2.9-1.2,4.1c-0.8,1.2-2,2-3.4,2.6C396.7,87.3,398,88.2,399,89.4z
			 M382.1,84.5h6.3c1.7,0,2.9-0.3,3.8-0.9c0.8-0.6,1.2-1.5,1.2-2.7c0-1.2-0.4-2.1-1.2-2.7c-0.8-0.6-2.1-0.9-3.8-0.9h-6.3V84.5z
			 M393,96.3c0.8-0.6,1.2-1.6,1.2-2.9c0-1.3-0.4-2.3-1.2-2.9c-0.8-0.6-2.1-0.9-3.8-0.9h-7.1v7.6h7.1C391,97.2,392.2,96.9,393,96.3z"
			/>
	</g>
	<path class="st3" d="M212.4,47c-0.6,0-1.1,0-1.7,0.1c15.3,0.9,27.5,13.6,27.5,29.1c0,15.5-12.1,28.2-27.5,29.1
		c0.6,0,1.1,0.1,1.7,0.1c16.1,0,29.2-13.1,29.2-29.2C241.6,60,228.5,47,212.4,47z"/>
	<path class="st1" d="M186.8,76.1c0-15.5,12.1-28.2,27.4-29.1c-0.6,0-1.2-0.1-1.8-0.1c-16.1,0-29.2,13.1-29.2,29.2
		c0,16.1,13.1,29.2,29.2,29.2c0.6,0,1.2,0,1.8-0.1C198.9,104.3,186.8,91.6,186.8,76.1z"/>
	<path class="st1" d="M212.2,106.3c-16.7,0-30.3-13.6-30.3-30.3c0-16.7,13.6-30.3,30.3-30.3c16.7,0,30.3,13.6,30.3,30.3
		C242.5,92.6,228.9,106.3,212.2,106.3z M212.2,47.5c-15.7,0-28.4,12.8-28.4,28.4c0,15.7,12.8,28.4,28.4,28.4
		c15.7,0,28.4-12.8,28.4-28.4C240.6,60.2,227.9,47.5,212.2,47.5z"/>
	<path class="st1" d="M212.4,106.3c-3.2,0-6-3.3-8.1-9.2c-2-5.6-3-13-3-20.9s1.1-15.3,3-20.9c2.1-5.9,5-9.2,8.1-9.2
		c3.2,0,6,3.3,8.1,9.2c2,5.6,3,13,3,20.9s-1.1,15.3-3,20.9C218.5,103,215.6,106.3,212.4,106.3z M212.4,47.9c-2.2,0-4.5,2.9-6.3,7.9
		c-1.9,5.4-2.9,12.6-2.9,20.3c0,7.7,1,14.9,2.9,20.3c1.8,5,4,7.9,6.3,7.9c2.2,0,4.5-2.9,6.3-7.9c1.9-5.4,2.9-12.6,2.9-20.3
		s-1-14.9-2.9-20.3C217,50.8,214.7,47.9,212.4,47.9z"/>
	<path class="st1" d="M212.4,106.3c-12.9,0-23.3-13.3-23.3-29.8s10.5-29.8,23.3-29.8c12.9,0,23.3,13.3,23.3,29.8
		S225.3,106.3,212.4,106.3z M212.4,48.7c-11.8,0-21.4,12.5-21.4,27.8s9.6,27.8,21.4,27.8c11.8,0,21.4-12.5,21.4-27.8
		S224.2,48.7,212.4,48.7z"/>
	<path class="st1" d="M241.6,77.1h-58.3c-0.5,0-1-0.4-1-1s0.4-1,1-1h58.3c0.5,0,1,0.4,1,1S242.1,77.1,241.6,77.1z"/>
	<path class="st1" d="M238.7,64c-0.1,0-0.1,0-0.2,0c-17.1-3.9-35.1-3.9-52.2,0c-0.5,0.1-1-0.2-1.1-0.7s0.2-1,0.7-1.1
		c17.4-3.9,35.7-3.9,53.1,0c0.5,0.1,0.8,0.6,0.7,1.1C239.6,63.7,239.2,64,238.7,64z"/>
	<path class="st1" d="M212.4,93.1c-8.9,0-17.9-1-26.5-2.9c-0.5-0.1-0.8-0.6-0.7-1.1c0.1-0.5,0.6-0.8,1.1-0.7
		c17.1,3.9,35.1,3.9,52.2,0c0.5-0.1,1,0.2,1.1,0.7c0.1,0.5-0.2,1-0.7,1.1C230.3,92.1,221.3,93.1,212.4,93.1z"/>
	<path class="st1" d="M212.4,47.9c-0.5,0-1-0.4-1-1V1.1c0-0.5,0.4-1,1-1c0.5,0,1,0.4,1,1V47C213.4,47.5,212.9,47.9,212.4,47.9z"/>
	<circle class="st1" cx="176.2" cy="57.3" r="5.5"/>
	<path class="st3" d="M176.2,63.7c-0.5,0-1-0.4-1-1c0-2.4-2.1-4.5-4.5-4.5c-0.5,0-1-0.4-1-1c0-0.5,0.4-1,1-1c2.4,0,4.5-2.1,4.5-4.5
		c0-0.5,0.4-1,1-1s1,0.4,1,1c0,2.4,2.1,4.5,4.5,4.5c0.5,0,1,0.4,1,1c0,0.5-0.4,1-1,1c-2.4,0-4.5,2.1-4.5,4.5
		C177.1,63.3,176.7,63.7,176.2,63.7z M174,57.3c0.9,0.5,1.6,1.3,2.2,2.2c0.5-0.9,1.3-1.6,2.2-2.2c-0.9-0.5-1.6-1.3-2.2-2.2
		C175.6,56,174.9,56.7,174,57.3z"/>
	<circle class="st1" cx="249.5" cy="92.1" r="5.5"/>
	<path class="st3" d="M249.5,98.6c-0.5,0-1-0.4-1-1c0-2.4-2.1-4.5-4.5-4.5c-0.5,0-1-0.4-1-1c0-0.5,0.4-1,1-1c2.4,0,4.5-2.1,4.5-4.5
		c0-0.5,0.4-1,1-1c0.5,0,1,0.4,1,1c0,2.4,2.1,4.5,4.5,4.5c0.5,0,1,0.4,1,1c0,0.5-0.4,1-1,1c-2.4,0-4.5,2.1-4.5,4.5
		C250.4,98.1,250,98.6,249.5,98.6z M247.3,92.1c0.9,0.5,1.6,1.3,2.2,2.2c0.5-0.9,1.3-1.6,2.2-2.2c-0.9-0.5-1.6-1.3-2.2-2.2
		C248.9,90.8,248.2,91.6,247.3,92.1z"/>
	<circle class="st1" cx="240.7" cy="49.2" r="5.5"/>
	<path class="st3" d="M240.7,55.7c-0.5,0-1-0.4-1-1c0-2.4-2.1-4.5-4.5-4.5c-0.5,0-1-0.4-1-1c0-0.5,0.4-1,1-1c2.4,0,4.5-2.1,4.5-4.5
		c0-0.5,0.4-1,1-1c0.5,0,1,0.4,1,1c0,2.4,2.1,4.5,4.5,4.5c0.5,0,1,0.4,1,1c0,0.5-0.4,1-1,1c-2.4,0-4.5,2.1-4.5,4.5
		C241.6,55.2,241.2,55.7,240.7,55.7z M238.5,49.2c0.9,0.5,1.6,1.3,2.2,2.2c0.5-0.9,1.3-1.6,2.2-2.2c-0.9-0.5-1.6-1.3-2.2-2.2
		C240.1,47.9,239.4,48.7,238.5,49.2z"/>
</g>
</svg>
